<?xml version="1.0" encoding="UTF-8" standalone="no"?>
<svg
   height="599.43445pt"
   viewBox="0 0 684.7085 599.43445"
   width="684.7085pt"
   version="1.1"
   id="svg11"
   xmlns="http://www.w3.org/2000/svg"
   xmlns:svg="http://www.w3.org/2000/svg">
  <defs
     id="defs11" />
  <path
     d="M 681.76041,569.38933 359.48307,10.170617 l -1.98436,-2.9843739 -2.4805,-2.2421853 -2.73828,-1.9843755 -3.22264,-1.4960944 -3.22658,-0.98828224 -3.47655,-0.25390471 -3.48047,0.25390471 -3.46484,0.98828224 -2.98047,1.4960944 -2.98047,1.9843755 -2.24219,2.2421853 -1.98047,2.9843739 -322.2812442,559.218713 -1.484375,3.22656 -0.99609495,3.24221 -0.24218721,3.48045 0.24218721,3.47267 0.99609495,3.48045 1.484375,2.98438 1.9843732,2.98438 2.2382824,2.24218 2.9804676,1.98439 2.980469,1.48438 3.480469,0.99999 3.464844,0.24228 H 664.63541 l 3.46485,-0.24228 3.23438,-0.99999 3.22654,-1.48438 2.73831,-1.98439 2.48046,-2.24218 1.98046,-2.98438 1.48439,-2.98438 0.99998,-3.48045 0.24237,-3.47267 -0.24237,-3.48045 -0.99998,-3.24221 z m 0,0"
     fill="#2b2b2c"
     fill-rule="evenodd"
     stroke="#2b2b2c"
     stroke-miterlimit="2.613"
     stroke-width="0.441627"
     id="path1"
     style="fill:#2b2b2c;fill-opacity:1" />
  <path
     d="M 342.35416,62.608116 627.8815,558.20967 H 56.822912 Z m 0,0"
     fill="#f9a900"
     fill-rule="evenodd"
     stroke="#2b2b2c"
     stroke-miterlimit="2.613"
     stroke-width="0.441627"
     id="path2" />
  <path
     d="m 328.20572,446.11203 c -49.41797,9.19531 -94.35547,4.22656 -121.41016,-11.93359 l 249.77735,-76.79297 1.24219,24.35547 -0.25782,0.24218 c -13.40625,14.41797 -32.27343,28.33985 -55.12109,39.51954 -6.6875,-12.66407 -19.85156,-20.875 -34.99609,-20.875 -21.85157,0 -39.73438,17.64843 -39.73438,39.77343 0,1.73047 0.5,5.71094 0.5,5.71094"
     fill="#2b2b2c"
     fill-rule="evenodd"
     id="path3"
     style="fill:#2b2b2c;fill-opacity:1" />
  <path
     d="M 259.17838,515.95187 489.84635,429.4675 v 86.48437 z m 0,0"
     fill="#2b2b2c"
     fill-rule="evenodd"
     id="path4"
     style="fill:#2b2b2c;fill-opacity:1" />
  <g
     transform="matrix(3.452621,0,0,3.456221,-0.00130778,-0.00123809)"
     id="g8">
    <path
       d="m 113.68515,127.49428 c 0,3.95233 -3.23464,7.19038 -7.1911,7.19038 -3.95307,0 -7.192225,-3.23805 -7.192225,-7.19038 0,-3.95799 3.239155,-7.19152 7.192225,-7.19152 3.95646,0 7.1911,3.23353 7.1911,7.19152 z m 0,0"
       fill="none"
       stroke="#2b2b2c"
       stroke-miterlimit="2.613"
       stroke-width="5.05185"
       id="path5" />
    <path
       d="M 87.005912,63.778781 102.54098,114.54887"
       fill="none"
       stroke="#2b2b2c"
       stroke-miterlimit="2.613"
       stroke-width="4.83112"
       id="path6" />
    <path
       d="M 66.224599,125.76732 87.869161,68.309787"
       fill="none"
       stroke="#2b2b2c"
       stroke-miterlimit="2.613"
       stroke-width="2.91945"
       id="path7" />
    <path
       d="m 87.50938,65.935219 43.50748,44.086031"
       fill="none"
       stroke="#2b2b2c"
       stroke-miterlimit="2.613"
       stroke-width="2.22729"
       id="path8" />
  </g>
  <path
     d="m 489.84635,400.12766 -121.16797,45.24218 c -2.48047,1 -4.97657,-0.2539 -5.96094,-2.73828 -0.99609,-2.23047 0.24219,-4.96875 2.72656,-5.96875 l 62.82031,-23.61328 61.58204,-22.85547 z m 0,0"
     fill="#2b2b2c"
     fill-rule="evenodd"
     id="path9"
     style="fill:#2b2b2c;fill-opacity:1" />
  <path
     d="m 352.29166,473.20969 c -1.9961,0 -4.21875,0.24218 -6.21485,0.24218 0,0 -6.70312,-0.24218 -10.17187,-1 -12.42188,-1.48437 -22.60156,-7.44921 -34.26953,-10.67968 -10.67969,-2.98047 -21.34766,-2.98047 -32.03125,-1.9961 -12.66406,1 -22.83203,7.21094 -35.01172,10.69141 -10.66797,3.24219 -21.84766,2.74219 -32.51563,0.5 -1.24218,7.71094 4.46485,14.91797 11.66797,15.40625 14.64453,0.5 28.3086,-4.22656 42.21094,-9.69531 5.96094,-1.98438 12.16406,-3.46875 18.86719,-4.22657 15.64453,-1.48437 30.03515,4.22657 44.19922,9.69532 1.48047,0.7539 2.72265,1.24218 4.21875,1.5 z m 0,0"
     fill="#2b2b2c"
     fill-rule="evenodd"
     id="path10"
     style="fill:#2b2b2c;fill-opacity:1" />
  <path
     d="m 275.32291,501.53391 h -0.5 c -6.70313,0.5 -12.90625,2 -18.86719,3.98437 -13.90234,5.72266 -27.5664,10.19141 -42.21094,9.69141 -7.20312,-0.5 -12.91015,-7.70703 -11.66796,-15.16016 10.66796,1.98438 21.84765,2.48438 32.53125,-0.5 12.16406,-3.72656 22.33203,-9.69531 34.99609,-10.69141 10.68359,-1.24218 21.36328,-1.24218 32.03125,1.9961 0.5,0 1,0.24219 1.24219,0.24219 z m 0,0"
     fill="#2b2b2c"
     fill-rule="evenodd"
     id="path11"
     style="fill:#2b2b2c;fill-opacity:1" />
</svg>
