<?xml version="1.0" encoding="UTF-8" standalone="no"?>
<svg
   height="138.53583mm"
   viewBox="0 0 158.68385 138.53583"
   width="158.68385mm"
   version="1.1"
   id="svg3"
   xmlns="http://www.w3.org/2000/svg"
   xmlns:svg="http://www.w3.org/2000/svg">
  <defs
     id="defs3" />
  <g
     transform="translate(50.8,13.758333)"
     id="g3">
    <path
       d="M 107.30838,118.4275 32.219634,-11.641666 c -0.767292,-1.322917 -2.169583,-2.116667 -3.677708,-2.116667 -1.508125,0 -2.910417,0.820208 -3.677709,2.116667 L -50.224532,118.4275 c -0.767291,1.32292 -0.767291,2.93687 0,4.23333 0.767292,1.32292 2.169584,2.11667 3.677709,2.11667 H 103.63067 c 1.50813,0 2.91042,-0.82021 3.67771,-2.11667 0.76729,-1.32291 0.76729,-2.93687 0,-4.23333 z"
       stroke-width="0.264583"
       id="path1"
       style="fill:#2b2b2c;fill-opacity:1" />
    <path
       d="m 299.88,48.2 256,443.3 H 43.875 Z"
       fill="#f9a900"
       transform="matrix(0.26458333,0,0,0.2635024,-50.773542,-13.220371)"
       id="path2" />
    <path
       d="m 39.828677,39.345917 c -2.655702,-1.19e-4 -4.808608,2.15279 -4.808489,4.808493 1.64e-4,2.655501 2.152988,4.808095 4.808489,4.807976 2.655301,-1.64e-4 4.807813,-2.152676 4.807977,-4.807976 1.19e-4,-2.655504 -2.152473,-4.808329 -4.807977,-4.808493 z m -22.31233,6.047695 c -1.063326,0 -1.6251,0.763651 -2.300637,1.439188 l -7.4662108,7.466211 c -0.8845577,0.88456 -0.8845577,2.309045 0,3.193603 0.8845629,0.88456 2.3060078,0.881515 3.1936058,0 l 7.408333,-7.357174 c 0.155948,-0.18321 0.242964,-0.208137 0.402042,-0.20257 H 29.170414 L 18.57313,63.954752 c -0.645113,0.779513 -0.529069,1.752883 -0.505913,2.654617 l -0.09095,13.090157 c -0.0044,0.380903 -0.07974,0.56959 -0.201539,0.875401 l -5.575371,13.189892 c -0.554514,1.311918 0.05544,2.814791 1.367359,3.369302 1.311923,0.554516 2.814275,-0.05544 3.368786,-1.367359 l 5.5578,-13.148551 c 0.38435,-0.884115 0.615585,-1.579644 0.621668,-2.451012 l 0.05426,-7.800557 c 0.06726,-0.510458 0.583608,-0.582713 0.842844,-0.172083 l 6.168099,10.857217 c 0.285551,0.434753 0.300185,0.618993 0.383955,1.196827 l 1.669666,13.422953 c 0.175734,1.413417 1.454627,2.409714 2.868041,2.233972 1.413413,-0.175736 2.410225,-1.455145 2.234489,-2.868557 L 35.569508,82.826986 c -0.08921,-0.717518 -0.255572,-1.160282 -0.566375,-1.696021 L 28.22577,69.201461 36.983891,57.61302 v 9.492962 c 0,0.629306 0.593526,1.512551 1.209228,2.259293 l 6.716902,8.146788 c 0.79582,0.965178 2.213444,1.101746 3.178617,0.305924 0.965179,-0.795816 1.101746,-2.213438 0.305925,-3.178617 l -6.629051,-8.039819 c -0.214498,-0.2695 -0.258082,-0.354426 -0.263033,-0.612881 l 0.02066,-11.156426 c -0.109376,-2.01363 -1.012192,-2.463641 -2.799313,-3.783748 l -4.564578,-3.449918 c -1.960517,-1.546976 -2.528014,-2.195806 -4.367175,-2.202966 z m -31.563966,52.247456 v 3.968752 h 35.660872 v 7.0528 h 51.356556 v -3.96875 H 25.582003 v -7.052802 z"
       stroke-width="0.264583"
       id="path3"
       style="fill:#2b2b2c;fill-opacity:1" />
  </g>
</svg>
