<?xml version="1.0" encoding="UTF-8" standalone="no"?>
<svg
   height="138.53583mm"
   viewBox="0 0 158.68385 138.53583"
   width="158.68385mm"
   version="1.1"
   id="svg3"
   xmlns="http://www.w3.org/2000/svg"
   xmlns:svg="http://www.w3.org/2000/svg">
  <defs
     id="defs3" />
  <g
     transform="translate(-75.935417,-65.0875)"
     id="g3">
    <path
       d="M 234.0438,197.27333 158.95505,67.204167 c -0.76729,-1.322917 -2.16958,-2.116667 -3.67771,-2.116667 -1.50812,0 -2.91041,0.820208 -3.67771,2.116667 L 76.510885,197.27333 c -0.767291,1.32292 -0.767291,2.93688 0,4.23333 0.767292,1.32292 2.169584,2.11667 3.677709,2.11667 H 230.36609 c 1.50813,0 2.91042,-0.82021 3.67771,-2.11667 0.76729,-1.32291 0.76729,-2.93687 0,-4.23333 z"
       stroke-width="0.264583"
       id="path1"
       style="fill:#2b2b2c;fill-opacity:1" />
    <path
       d="M 87.54401,195.13689 155.27734,78.326278 223.01068,195.13689 Z"
       fill="#f9a900"
       stroke-width="0.264583"
       id="path2" />
    <path
       d="m 155.27735,110.72812 c -7.11732,4e-5 -12.88704,5.76975 -12.88707,12.88707 3e-5,7.11732 5.76975,12.88704 12.88707,12.88707 7.11731,-3e-5 12.88703,-5.76975 12.88707,-12.88707 -4e-5,-7.11732 -5.76976,-12.88703 -12.88707,-12.88707 z m -11.45098,29.20132 c -5.04684,0 -9.64428,1.85382 -13.15217,4.92012 0.19718,0.15173 0.42651,0.28891 0.7059,0.37568 0.55557,0.17255 1.75493,0.3607 1.75493,0.3607 0,0 -0.19432,1.32171 1.59267,2.17868 1.41646,0.67929 2.46496,0.13023 2.46496,0.13023 0,0 0.0388,1.45406 0.85783,1.80712 0.88524,0.38163 1.53945,0.0295 1.53945,0.0295 0,0 -0.0265,0.49206 0.4501,0.76843 0.45374,0.2631 0.91108,0.0145 0.94671,0.28732 0.14581,1.11679 0.12487,1.88204 1.31568,2.19004 1.54222,0.3989 1.98127,-0.69401 1.98127,-0.69401 l 0.27699,0.15555 c 0,0 -0.24383,1.63191 1.62987,1.80454 1.25459,0.11558 1.7415,-1.19321 1.7415,-1.19321 0,0 0.37031,0.45591 0.6196,0.53382 0.25025,0.0782 0.80098,-0.0909 0.80098,-0.0909 0,0 0.33784,1.40516 1.84279,0.91932 1.01118,-0.32644 0.60358,-2.03088 0.60358,-2.03088 0,0 1.40648,0.1627 1.92546,-1.09761 0.62685,-1.52227 -0.90744,-2.41846 -0.90744,-2.41846 l -0.0129,-0.22479 c 0,0 0.91455,-0.18676 1.10536,-1.29811 0.20382,-1.18715 -0.69867,-1.69551 -0.69867,-1.69551 l 0.30334,-0.52916 c 0,0 1.13568,0.45692 1.88929,-0.56121 0.67516,-0.91215 -0.33073,-2.23191 -0.33073,-2.23191 0,0 0.95712,-0.15603 0.78704,-1.58026 -0.0355,-0.29697 -0.17559,-0.56636 -0.34158,-0.81494 z m 13.59451,0 c -0.0745,0.20234 -0.12588,0.41664 -0.1266,0.63304 -0.004,1.05745 0.97772,1.86552 0.97772,1.86552 0,0 -1.16598,0.61668 -1.14257,1.86397 0.0325,1.73347 1.62264,2.13423 1.62264,2.13423 0,0 -0.40659,0.26374 -0.4687,0.72657 -0.0837,0.62368 0.37775,1.15394 0.37775,1.15394 0,0 -1.03894,0.43714 -1.0387,1.73426 2.7e-4,1.56992 1.0429,1.24702 1.53634,1.86035 0.0943,0.11725 0.1723,0.20647 0.28784,0.34778 -0.55895,0.21598 -0.95601,0.75824 -0.95601,1.3932 0,0.82453 0.66892,1.49345 1.49345,1.49345 0.53521,0 1.00445,-0.28207 1.26814,-0.70538 0.003,0.004 0.0698,0.0847 0.0698,0.0847 l 0.185,-0.0677 c -0.025,0.0893 -0.0387,0.18332 -0.0387,0.2806 0,0.57346 0.46524,1.0387 1.03869,1.0387 0.57346,0 1.0387,-0.46524 1.0387,-1.0387 0,-0.358 -0.18105,-0.67414 -0.45682,-0.86093 l 0.18448,-0.0677 c 0,0 0.26104,-0.3544 0.3359,-0.60565 0.0619,-0.20789 -0.0512,-0.67541 -0.0512,-0.67541 0,0 0.46368,-0.0595 0.68213,-0.13746 0.22054,-0.0787 0.62115,-0.32866 0.62115,-0.32866 0,0 0.41333,1.05475 1.31982,1.16943 0.97469,0.12332 1.67224,-0.43098 1.67224,-0.43098 0,0 0.98742,0.97853 1.98025,0.51315 1.04457,-0.48964 0.65009,-2.02313 0.65009,-2.02313 l 0.50952,-0.2341 c 0,0 0.78319,0.7022 1.72909,0.31988 0.93886,-0.37948 0.87127,-1.55959 0.87127,-1.55959 0,0 0.85709,0.41805 1.78387,-0.16537 0.77586,-0.48841 0.90434,-1.48983 0.90434,-1.48983 0,0 0.98972,0.70989 2.19004,0.11369 1.23408,-0.61297 1.15963,-1.62523 1.15963,-1.62523 0,0 0.85766,0.28547 1.73891,-0.0222 0.0741,-0.0259 0.1361,-0.0601 0.2067,-0.0894 -3.64941,-4.05404 -8.93912,-6.59908 -14.8487,-6.59908 z m -28.42152,6.57531 c -3.00616,3.32866 -4.90605,7.67776 -5.1201,12.48244 h -0.0496 v 27.54716 h 12.73049 v -13.37644 c -0.22714,0.0688 -0.43684,0.15051 -0.59066,0.25062 -0.66481,0.43273 -0.69246,1.50224 -0.69246,1.50224 0,0 -0.77128,-0.0225 -1.27124,0.43408 -0.61851,0.56481 -0.55449,1.25367 -0.55449,1.25367 0,0 -0.36572,-0.12223 -0.61443,-0.005 -0.27305,0.1291 -0.38086,0.50075 -0.38086,0.50075 0,0 -0.62996,-0.49414 -1.16478,-0.54312 -0.48398,-0.0443 -1.43454,-0.28577 -1.43454,-0.28577 l 0.007,-0.34365 c 0,0 0.92987,-0.0751 1.69912,-0.6227 0.87551,-0.62324 0.88729,-1.21647 0.88729,-1.21647 0,0 1.04346,0.0715 1.69653,-0.28835 0.82863,-0.45652 1.01235,-1.49345 1.01235,-1.49345 0,0 0.8114,-0.0811 1.40094,-0.31419 v -11.83339 -0.0915 h 0.006 c 0.0482,-0.67527 0.60925,-1.19894 1.28623,-1.20044 v -5.3e-4 c 0.67817,1.7e-4 1.24085,0.5245 1.28881,1.20096 h 5.3e-4 v 0.007 c 0.002,0.0282 0.003,0.0565 0.003,0.0848 -8e-4,0.0141 -0.002,0.0283 -0.003,0.0424 v 10.16992 c 0.43285,-0.0658 0.93859,-0.17227 1.24592,-0.37052 1.01225,-0.65299 0.9927,-1.7539 0.9927,-1.7539 0,0 1.13691,0.40458 1.82211,-0.45527 0.73301,-0.91983 0.33073,-2.02572 0.33073,-2.02572 l 0.64957,-0.52038 1.63401,0.0858 c 0,0 0.3895,-0.17703 0.5147,-0.34003 0.0528,-0.0687 0.092,-0.18923 0.11886,-0.29353 0.0664,0.008 0.1339,0.0134 0.20257,0.0134 0.88352,0 1.60042,-0.71689 1.60042,-1.60042 0,-0.0839 -0.007,-0.16607 -0.0191,-0.24649 0.009,2e-4 0.0175,5.3e-4 0.0264,5.3e-4 0.61436,0 1.1126,-0.49824 1.1126,-1.1126 0,-0.61436 -0.49824,-1.11259 -1.1126,-1.11259 -0.55295,0 -1.0114,0.40362 -1.09761,0.93224 l -0.17776,-0.25063 c 0,0 -0.33539,-0.0592 -0.77825,-0.01 -0.27404,0.0306 -0.75396,0.34054 -0.75396,0.34054 0,0 -0.0589,-0.66938 -0.18448,-0.97565 -0.10387,-0.25327 -0.43019,-0.40927 -0.45786,-0.68161 -0.0843,-0.82982 1.4045,-0.25445 0.94878,-2.31562 -0.37807,-1.70997 -2.43034,-1.17357 -2.43034,-1.17357 0,0 -0.0434,-1.05164 -0.70228,-1.61438 -0.68874,-0.58826 -1.85415,-0.28732 -1.85415,-0.28732 0,0 0.0127,-0.74394 -0.4005,-1.25418 -0.41283,-0.50977 -1.22628,-0.524 -1.22628,-0.524 0,0 -0.0266,-0.83194 -0.6258,-1.34927 -0.73319,-0.63307 -1.19453,-0.29875 -1.72496,-0.5917 -0.17882,-0.0988 -0.17622,-0.25648 -0.46199,-0.40256 -0.30778,-0.15733 -0.74155,-0.0289 -0.74155,-0.0289 0,0 -0.22085,-0.94328 -0.76998,-1.29397 -0.59975,-0.38303 -1.53944,0.0222 -1.53944,0.0222 -1e-5,0 -0.59947,-1.57257 -1.94717,-2.16679 -0.84618,-0.37309 -1.71574,-0.47648 -2.33578,-0.50436 z m 53.68045,1.36167 c -0.32808,0.0951 -0.67192,0.22592 -1.03715,0.44339 -1.88234,1.12082 -2.07894,2.93367 -2.07894,2.93367 0,0 -0.53601,-0.57978 -1.52342,-0.27078 -0.7689,0.24061 -1.027,0.85331 -1.06402,1.1591 -0.0554,0.45749 -0.26717,0.19068 -0.26717,0.19068 0,0 -0.2277,-0.88085 -1.83554,-0.87953 -1.2873,0.001 -1.50947,1.48311 -1.50947,1.48311 0,0 -0.69281,-0.36503 -1.27538,0.28629 -0.49271,0.55086 -0.23564,1.3963 -0.23564,1.3963 0,0 -0.8191,-0.0492 -1.31517,0.39739 -0.51602,0.46456 -0.43149,1.28674 -0.43149,1.28674 0,0 -0.957,-0.78578 -2.31097,-0.15864 -1.10872,0.51354 -0.87644,1.96835 -0.87644,1.96835 0,0 -0.96963,-0.10062 -1.33841,1.19941 -0.34403,1.21274 0.42013,1.81281 0.42013,1.81281 0,0 -0.77399,0.51521 -0.93225,0.92294 -0.14082,0.36273 -0.13142,0.6936 -0.0915,0.9431 0.0143,0.13278 0.0447,0.26058 0.0889,0.38189 -0.005,0.004 -0.11518,0.11364 -0.22531,0.26561 -0.47393,0.15513 -0.81649,0.60082 -0.81649,1.12655 0,0.65445 0.53049,1.18494 1.18494,1.18494 0.65445,0 1.18546,-0.53049 1.18546,-1.18494 0,-0.0247 -10e-4,-0.0491 -0.003,-0.0734 0.0291,-0.0291 0.0734,-0.0718 0.0734,-0.0718 l 0.54053,0.0579 c 0,0 -0.18216,0.85627 0.2403,1.44177 0.29353,0.40681 0.66951,0.5595 0.85524,0.62425 -0.0742,0.19762 -0.11524,0.4116 -0.11524,0.6351 0,0.99807 0.80958,1.80765 1.80764,1.80765 0.27168,0 0.52895,-0.0605 0.76016,-0.16795 0.495,-0.16881 0.75102,-0.5459 0.85473,-0.74518 l 0.002,-8.16797 v -0.091 h 0.006 c 0.0476,-0.67568 0.60887,-1.19994 1.28623,-1.20147 0.67815,5.3e-4 1.24061,0.525 1.28829,1.20147 h 0.001 v 0.014 c 0.002,0.0256 0.002,0.0513 0.003,0.077 -8e-4,0.0122 -0.002,0.0245 -0.003,0.0367 v 9.98595 c 7.9e-4,0.52194 0.19196,0.88971 0.64492,1.14412 0.68274,0.31111 1.59784,-0.0873 1.59784,-0.0873 0,0 -0.10923,0.99451 0.90382,1.43092 0.85497,0.36832 1.99987,-0.0698 1.99987,-0.0698 0,0 0.0548,1.09817 0.34779,1.44746 0.30722,0.36619 0.85524,0.92655 0.85524,0.92655 0,0 -0.33749,0.13074 -0.51314,0.47336 -0.21701,0.42328 -0.1783,0.63372 -0.19896,0.70487 l -0.80202,-0.0579 c 0,0 -0.001,-1.2053 -0.92139,-1.74666 -1.02303,-0.60185 -2.23087,-0.0915 -2.23087,-0.0915 0,0 -0.42927,-0.66921 -0.76533,-0.84853 -0.394,-0.21023 -0.70055,-0.17289 -0.91777,-0.11369 v 13.30462 h 12.73307 v -27.54715 h -0.0496 c -0.18596,-4.17419 -1.64563,-8.00397 -3.99562,-11.12077 z m -27.74973,5.18522 c -0.63727,0 -1.15394,0.51718 -1.15394,1.15445 0,0.63727 0.51667,1.15393 1.15394,1.15393 0.63727,0 1.15445,-0.51666 1.15445,-1.15393 0,-0.63727 -0.51718,-1.15445 -1.15445,-1.15445 z m -6.75204,2.43758 c -0.49982,0 -0.90537,0.40554 -0.90537,0.90537 0,0.49981 0.40555,0.90537 0.90537,0.90537 0.49982,0 0.90485,-0.40556 0.90485,-0.90537 0,-0.49983 -0.40503,-0.90537 -0.90485,-0.90537 z m 2.36471,1.54564 c -0.70026,0 -1.26814,0.56787 -1.26814,1.26814 0,0.70026 0.56788,1.26814 1.26814,1.26814 0.70027,0 1.26814,-0.56788 1.26814,-1.26814 0,-0.70027 -0.56787,-1.26814 -1.26814,-1.26814 z m 10.54871,0.1142 c -0.47118,0 -0.85369,0.38199 -0.85369,0.85318 0,0.47067 0.38167,0.85234 0.85214,0.85318 -0.001,0.0197 -0.002,0.0395 -0.002,0.0594 0,0.65444 0.53101,1.18546 1.18545,1.18546 0.65446,0 1.18546,-0.53102 1.18546,-1.18546 0,-0.65445 -0.531,-1.18494 -1.18546,-1.18494 -0.12442,0 -0.24438,0.0192 -0.35708,0.0548 -0.0961,-0.3659 -0.42921,-0.63562 -0.82527,-0.63562 z m -0.39429,6.37894 c -0.70599,0 -1.27847,0.57249 -1.27847,1.27848 0,0.70599 0.57248,1.27847 1.27847,1.27847 0.70599,0 1.27848,-0.57248 1.27848,-1.27847 0,-0.70599 -0.57249,-1.27848 -1.27848,-1.27848 z m -10.57971,1.86707 c -0.66018,0 -1.1958,0.5351 -1.1958,1.19528 0,0.66017 0.53562,1.19579 1.1958,1.19579 0.66017,0 1.19579,-0.53562 1.19579,-1.19579 0,-0.66018 -0.53562,-1.19528 -1.19579,-1.19528 z m -4.08658,0.10335 c -0.61436,0 -1.11259,0.49824 -1.11259,1.1126 0,0.61436 0.49823,1.11311 1.11259,1.11311 0.61437,0 1.1126,-0.49875 1.1126,-1.11311 0,-0.61436 -0.49823,-1.1126 -1.1126,-1.1126 z m 8.20416,1.45211 c -0.43683,0 -0.79065,0.35434 -0.79065,0.79117 0,0.43682 0.35382,0.79116 0.79065,0.79116 0.43682,0 0.79116,-0.35434 0.79116,-0.79116 0,-0.43683 -0.35434,-0.79117 -0.79116,-0.79117 z m 8.46976,0.27389 c -1.391,-0.0202 -1.08159,1.4459 -1.08159,1.4459 l -0.57929,0.0744 c 0,0 0.25488,-1.23375 -1.06144,-1.26246 -1.24012,-0.0271 -1.11311,1.36839 -1.11311,1.36839 0,0 -0.80812,-0.40352 -1.43608,0.42892 -0.57893,0.76742 0.40979,1.76837 0.40979,1.76837 0,0 -0.61966,0.79315 -0.28887,1.59783 0.30777,0.74865 1.30173,0.79375 1.30173,0.79375 0,0 -0.18861,1.40482 0.53589,2.01487 1.41342,1.19014 1.34831,-0.0618 1.72495,0.3917 0.17023,0.20498 -0.0889,0.47344 -0.0429,0.73587 0.0458,0.26098 0.40249,0.54676 0.24133,0.75706 -0.15623,0.20389 -0.23513,-0.004 -0.23513,-0.004 0,0 -0.46983,-0.0764 -0.69401,-0.0191 -0.27338,0.0698 -0.69288,0.39002 -0.74414,0.42943 0.007,-0.0561 0.0103,-0.11319 0.0103,-0.17105 0,-0.80335 -0.65134,-1.45469 -1.45469,-1.45469 -0.80335,0 -1.45521,0.65134 -1.45521,1.45469 0,0.57634 0.33542,1.07436 0.82166,1.31 l -0.0631,0.0842 c 0,0 -0.66453,0.51669 -0.45268,1.58233 0.18297,0.92039 1.14308,1.49759 1.14308,1.49759 0,0 -1.38645,0.46334 -1.28003,2.02313 0.0745,1.09216 0.75913,1.6552 0.75913,1.6552 0,0 -0.62032,0.14692 -0.63924,0.59737 -0.004,0.0879 0.0128,0.14088 0.0207,0.20981 h 14.35829 v -15.91841 c -0.005,-0.002 -0.0107,-0.007 -0.016,-0.009 -0.61912,-0.26444 -1.67225,0.01 -1.67225,0.01 0,0 -0.12534,-0.78954 -0.98598,-0.84285 -0.83876,-0.052 -1.02268,0.83819 -1.02268,0.83819 0,0 -0.55694,-0.50403 -0.90433,-0.61288 -0.33514,-0.10501 -1.05369,-0.0124 -1.05369,-0.0124 0,0 0.13659,-0.90443 -0.5271,-1.36942 -0.759,-0.53176 -1.50533,-0.11627 -1.50533,-0.11627 0,0 0.16221,-1.25932 -1.01803,-1.27641 z m -10.77195,1.22008 c -0.56282,0 -1.01958,0.45624 -1.01958,1.01906 0,0.14268 0.0292,0.27871 0.0822,0.40204 -0.0284,0.006 -0.0566,0.0135 -0.0842,0.0217 -0.11107,-0.0464 -0.33777,-0.12221 -0.60616,0.0258 -0.15025,0.0829 -0.28601,0.29421 -0.38344,0.46302 -0.0383,-0.87826 -0.76289,-1.57924 -1.65055,-1.57924 -0.004,0 -0.008,5.3e-4 -0.0124,5.3e-4 -0.0621,-0.005 -0.11053,-0.0241 -0.17777,-0.0238 -1.65791,0.008 -1.6614,1.72031 -1.6614,1.72031 0,0 -0.95373,-0.10968 -1.72341,0.53175 -0.44788,0.37325 -0.97823,1.46089 -0.97823,1.46089 0,0 -0.73435,-1.00582 -2.31356,-0.97565 -1.40858,0.0269 -2.0314,0.90589 -2.0314,0.90589 l -0.23098,0.0914 v 14.02602 h 15.96078 c -0.0254,-0.22446 -0.072,-0.56198 -0.17725,-0.7798 -0.17202,-0.35596 -0.7643,-0.90692 -0.7643,-0.90692 0,0 1.59871,-0.54689 1.46968,-2.53163 -0.13465,-2.07111 -2.01228,-2.09083 -2.01228,-2.09083 0,0 0.78481,-0.72503 0.71882,-1.77043 -0.0736,-1.16595 -0.89762,-1.7849 -0.89762,-1.7849 0,0 0.14857,-0.12784 0.31523,-0.3111 0.50605,-0.23692 0.85679,-0.7501 0.85679,-1.34565 0,-0.82053 -0.66568,-1.48622 -1.48621,-1.48622 -0.19633,1.9e-4 -0.28902,-0.0102 -0.43512,0.0114 0,0 0.099,-0.64132 -0.0269,-0.87127 -0.15483,-0.28293 -0.5643,-0.48769 -0.59376,-0.5023 0.30931,-0.23749 0.50901,-0.61099 0.50901,-1.03094 0,-0.27452 -0.0856,-0.52909 -0.23099,-0.73897 0.35599,-0.15905 0.6041,-0.51617 0.6041,-0.93121 0,-0.56282 -0.45625,-1.01906 -1.01906,-1.01906 z m 4.56354,4.14858 c -0.45973,0 -0.8325,0.37329 -0.8325,0.83303 0,0.45973 0.37277,0.8325 0.8325,0.8325 0.45973,0 0.83251,-0.37277 0.83251,-0.8325 0,-0.45974 -0.37278,-0.83303 -0.83251,-0.83303 z"
       id="path3"
       style="fill:#2b2b2c;fill-opacity:1" />
  </g>
</svg>
