<?xml version="1.0" encoding="UTF-8" standalone="no"?>
<svg
   viewBox="0 0 599.99769 523.99841"
   version="1.1"
   id="svg3"
   width="599.99768"
   height="523.99841"
   xmlns="http://www.w3.org/2000/svg"
   xmlns:svg="http://www.w3.org/2000/svg">
  <defs
     id="defs3" />
  <g
     stroke="#2b2b2c"
     id="g2"
     transform="translate(-0.00117059,-0.0016)">
    <path
       d="M 300,16 584,508 H 16 Z"
       fill="#f9a900"
       stroke-linejoin="round"
       stroke-width="32"
       id="path1" />
    <path
       d="m 318,457 c -13,-9 -24,-19 -32,-31 19,-2 37,-3 47,-15 10,-12 18,-66 95,-64 -2,5 -10,16 -10,16 l 27,-4 c 0,0 -5,22 -30,44"
       fill="none"
       stroke-width="6"
       id="path2" />
  </g>
  <path
     d="m 410.99883,378.9984 a 7,6 0 1 0 0,-0.1 z m -51,-13 h -62 v -27 l 38,-26 8,7 34,-11 v -11 l -30,11 -12,-11 -34,15 v -27 l 4,-7 15,-23 v -19 l 30,-27 -3,-7 -31,22 -7,-26 11,-23 -4,-4 -19,31 8,45 c -12,4 -23,23 -23,34 l -4,4 -11,-49 7,-31 h -3 l -8,19 -27,-26 -3,7 22,27 v 27 c -19,-8 -30,-8 -49,-12 v 8 c 23,4 38,11 53,23 v 19 l -38,-16 -38,16 v 7 h 8 l 26,-11 38,23 v 49 h -102 v 8 h 102 v 15 l -19,23 27,-4 4,4 h 4 l 7,7 12,-15 h 22 l -15,-23 v -7 h 54 m 4,51 c -17,4 -29,15 -38,32 l -24,-19 c -3,4 -11,4 -15,4 -42,-4 -83,-11 -121,27 h 338 c 0,-23 -50,-23 -57,-35 -4,-11 26,-22 0,-34 -6,-2 -20,-2 -24,-1 -12,11 -42,22 -59,26"
     id="path3"
     style="fill:#2b2b2c;fill-opacity:1" />
</svg>
