<?xml version="1.0" encoding="UTF-8" standalone="no"?>
<svg
   height="523.59998"
   width="599.75"
   version="1.1"
   id="svg2"
   xmlns="http://www.w3.org/2000/svg"
   xmlns:svg="http://www.w3.org/2000/svg">
  <defs
     id="defs2" />
  <path
     d="M 597.575,499.6 313.775,8 c -2.9,-5 -8.2,-8 -13.9,-8 -5.7,0 -11,3.1 -13.9,8 L 2.175,499.6 c -2.9,5 -2.9,11.1 0,16 2.9,5 8.2,8 13.9,8 h 567.6 c 5.7,0 11,-3.1 13.9,-8 2.9,-5 2.9,-11.1 0,-16 z"
     id="path1"
     style="fill:#2b2b2c;fill-opacity:1" />
  <path
     d="m 299.87695,50.03711 -80.24352,140.43323 c 14.0412,-10.77756 17.42992,-18.91855 27.49429,-19.42597 14.77754,-0.01 22.80079,21.68681 34.79025,20.3736 16.51562,-6.46645 23.13727,-32.05696 41.01758,-32.55469 15.78445,-1.39908 50.80396,38.86024 59.40791,45.99001 9.88996,8.19544 12.46547,9.66969 13.01006,9.83811 z m -33.27539,161.75391 c 0,0 -20.51944,7.77833 -28.2539,15.15234 -6.26381,5.97189 -13.38076,13.61519 -13.34766,22.26953 0.0292,7.61788 4.99269,15.36827 4.99269,15.36827 l 11.16406,11.24024 5.85937,7.1621 -1.95312,4.55664 -32.16066,63.31308 -62.50195,28.07452 -18.88281,61.85351 -84.787111,50.74414 H 347.33203 l -17.00781,-18.48242 20.02734,-24.16992 34.29883,18.87695 -6.375,23.77539 h 177.60156 l -1.19922,-2.06836 -64.41406,-61.04687 -17.58008,35.1582 -37.76172,-14.32226 -3.90625,-34.50782 29.29883,-19.5332 -37.76367,-9.11523 -49.48242,-64.45704 -1.95313,-26.04297 c 0,0 -65.49157,-25.2938 -91.89843,-35.57226 -6.20959,-2.41698 -10.47684,-3.89467 -10.97266,-4.14258 -2.60432,-1.30216 -19.43601,-8.29673 -20.60742,-17.1582 -1.43861,-10.88281 18.96484,-26.92578 18.96484,-26.92578 z m -1.41992,62.13671 c 16.15263,6.88704 28.12497,12.42124 30.35202,30.86966 0.91219,24.05581 -14.06391,41.90104 -21.37546,55.68308 -7.56081,16.52423 -10.81836,35.91016 -10.81836,35.91016 -10.37918,-24.7762 -10.1446,-33.91412 3.91211,-56.62696 8.8116,-14.1209 16.51227,-23.04451 14.73242,-39.59375 -1.14269,-10.62493 -16.80273,-26.24219 -16.80273,-26.24219 z m 54.32422,31.38867 c 0,0 22.5584,8.1632 31.75195,24.45508 13.23197,23.44838 23.60192,59.75185 24.41602,61.52735 3.79814,8.28349 19.85742,39.06445 19.85742,39.06445 0,0 -25.41942,-19.21233 -35.1582,-36.45898 -9.59221,-16.98709 -14.01183,-39.34823 -22.33008,-56.99414 -5.42916,-11.51713 -18.53711,-31.59376 -18.53711,-31.59376 z m -11.2793,60.68751 27.85352,22.33008 -7.59571,21.40625 -28.08398,13.12109 -12.20117,-31.76563 z m -110.94922,27.24804 27.34571,14.97462 -9.76563,55.34179 -32.55469,-13.67187 -10.41796,-24.08985 z m 65.75977,44.92578 20.18359,7.8125 1.65039,19.22266 -17.92773,8.12305 -19.8418,-20.98633 c 4.85918,-4.24485 11.51876,-9.45557 15.93555,-14.17188 z"
     fill="#f9a900"
     id="path2"
     style="stroke-width:0.997955" />
</svg>
